<svg xmlns="http://www.w3.org/2000/svg" width="146.001" height="43.362" viewBox="0 0 146.001 43.362"><g transform="translate(14.333 -9.743)"><g transform="translate(-14.333 9.743)"><path d="M413.914,104.991v5.851h-11.7V99.14h5.851v5.851Z" transform="translate(-273.761 -67.479)" fill="#009ed1"/><rect width="5.851" height="5.851" transform="translate(140.15 25.81)" fill="#009ed1"/><path d="M30.163,18.012V0H0V43.359H37.79V18.012ZM7.626,7.626H22.537V18.012H7.626Zm22.537,28.1H7.626V25.638H30.163Z" fill="#fff"/><path d="M145.94,0h7.55V35.733h19.58v7.626H145.94Z" transform="translate(-99.333)" fill="#fff"/><rect width="7.626" height="43.359" transform="translate(81.647)" fill="#fff"/><path d="M307.76,0V43.359h7.594V25.795h22.569V0ZM330.3,18.181H315.354V7.642H330.3Z" transform="translate(-209.475)" fill="#fff"/></g></g></svg>